<svg width="32" height="32" viewBox="0 0 32 32" fill="none" xmlns="http://www.w3.org/2000/svg">
<ellipse cx="15.8495" cy="5.82143" rx="4.51505" ry="4.82143" fill="#566CE2"/>
<ellipse cx="5.51505" cy="16.4289" rx="4.51505" ry="4.82143" fill="#7F77D9"/>
<ellipse cx="26.4849" cy="16.0001" rx="4.51505" ry="4.82143" fill="#C9D7E3"/>
<ellipse cx="15.8495" cy="26.0714" rx="4.51505" ry="4.82143" fill="#F7F7EF"/>
<path d="M9.02676 19.6429L19.5082 8.51484C19.8021 8.20282 20.0286 7.83367 20.1738 7.43035V7.43035C20.3261 7.00697 20.3853 6.55567 20.3471 6.10733L20.3043 5.60355C20.2812 5.33233 20.2378 5.06322 20.1745 4.79849L20.0821 4.41255C19.8811 3.57285 19.4256 2.81572 18.778 2.24468V2.24468C18.2468 1.77624 17.6054 1.4501 16.9139 1.29671L16.7042 1.25019C15.9646 1.08613 15.1953 1.11402 14.4695 1.33122V1.33122C13.7166 1.55653 13.0339 1.98096 12.4969 2.55482V2.55482C12.147 2.92884 11.8619 3.3624 11.6582 3.83234L11.6115 3.93988C11.2824 4.69887 11.1652 5.53287 11.2723 6.35317V6.35317C11.3431 6.89575 11.5107 7.42123 11.767 7.90466L11.8117 7.9889C12.0339 8.40797 12.3134 8.79403 12.6422 9.13593L13.8163 10.3569L22.7798 19.1022C23.0752 19.3904 23.4001 19.6466 23.7493 19.8665L23.9868 20.016C24.7667 20.5072 25.6697 20.7679 26.5914 20.7679H26.6832C27.2807 20.7679 27.872 20.6472 28.4217 20.4132L28.6971 20.2959C29.294 20.0418 29.8061 19.6226 30.1732 19.0876V19.0876C30.4568 18.6742 30.6459 18.2032 30.7268 17.7084L30.8025 17.2453C30.8505 16.9513 30.8747 16.6539 30.8747 16.356V15.9182C30.8747 15.4284 30.8076 14.941 30.6752 14.4694L30.6638 14.4287C30.4882 13.8033 30.1956 13.2169 29.8016 12.7005L29.6531 12.5059C29.4155 12.1945 29.1291 11.9235 28.805 11.7035V11.7035C28.2977 11.3592 27.7115 11.1487 27.101 11.0918L26.9877 11.0813C26.17 11.0051 25.3483 11.1776 24.6303 11.5763L23.9156 11.9732C23.4562 12.2283 23.0283 12.5364 22.6406 12.8912L21.1171 14.2857L17.505 17.9821L13.076 22.511C12.6692 22.9269 12.3253 23.4001 12.0553 23.9155L11.7139 24.567C11.3784 25.2073 11.2438 25.9339 11.3278 26.6519V26.6519C11.3621 26.945 11.4324 27.2328 11.537 27.5087L11.741 28.0465C11.949 28.5948 12.2676 29.0946 12.6769 29.5146V29.5146C13.0129 29.8593 13.4047 30.1448 13.8358 30.3591L14.1233 30.502C14.7775 30.8272 15.511 30.9588 16.2374 30.8811V30.8811C16.6955 30.8322 17.141 30.701 17.5526 30.494L17.7698 30.3848C18.2297 30.1535 18.6479 29.8472 19.0073 29.4785L19.0452 29.4396C19.4073 29.0681 19.6998 28.6346 19.9088 28.1599V28.1599C20.1759 27.5533 20.3004 26.8936 20.2729 26.2315L20.2542 25.7823C20.2345 25.308 20.1496 24.8388 20.0019 24.3877V24.3877C19.7334 23.5678 19.264 22.8281 18.6366 22.2359L11.1087 15.1318L9.00387 13.1586C8.69327 12.8674 8.34965 12.6135 7.98003 12.4022L7.64466 12.2105C6.95978 11.819 6.17719 11.6316 5.38926 11.6705V11.6705C4.28447 11.7249 3.24761 12.2199 2.51051 13.0447L2.35566 13.2179C1.73363 13.9139 1.33344 14.7797 1.20634 15.7045L1.20092 15.7439C1.06997 16.6967 1.22704 17.6668 1.65191 18.5296L1.97771 19.1912C2.22447 19.6923 2.59371 20.123 3.05123 20.4433V20.4433C3.45375 20.7252 3.91384 20.9141 4.39827 20.9965L4.89059 21.0802C5.39183 21.1654 5.90408 21.1629 6.40446 21.0727V21.0727C7.13725 20.9407 7.82439 20.6243 8.40121 20.1535L9.02676 19.6429Z" stroke="black" stroke-width="2"/>
<path d="M9.02676 19.6429L19.5082 8.51484C19.8021 8.20282 20.0286 7.83367 20.1738 7.43035V7.43035C20.3261 7.00697 20.3853 6.55567 20.3471 6.10733L20.3043 5.60355C20.2812 5.33233 20.2378 5.06322 20.1745 4.79849L20.0821 4.41255C19.8811 3.57285 19.4256 2.81572 18.778 2.24468V2.24468C18.2468 1.77624 17.6054 1.4501 16.9139 1.29671L16.7042 1.25019C15.9646 1.08613 15.1953 1.11402 14.4695 1.33122V1.33122C13.7166 1.55653 13.0339 1.98096 12.4969 2.55482V2.55482C12.147 2.92884 11.8619 3.3624 11.6582 3.83234L11.6115 3.93988C11.2824 4.69887 11.1652 5.53287 11.2723 6.35317V6.35317C11.3431 6.89575 11.5107 7.42123 11.767 7.90466L11.8117 7.9889C12.0339 8.40797 12.3134 8.79403 12.6422 9.13593L13.8163 10.3569L22.7798 19.1022C23.0752 19.3904 23.4001 19.6466 23.7493 19.8665L23.9868 20.016C24.7667 20.5072 25.6697 20.7679 26.5914 20.7679H26.6832C27.2807 20.7679 27.872 20.6472 28.4217 20.4132L28.6971 20.2959C29.294 20.0418 29.8061 19.6226 30.1732 19.0876V19.0876C30.4568 18.6742 30.6459 18.2032 30.7268 17.7084L30.8025 17.2453C30.8505 16.9513 30.8747 16.6539 30.8747 16.356V15.9182C30.8747 15.4284 30.8076 14.941 30.6752 14.4694L30.6638 14.4287C30.4882 13.8033 30.1956 13.2169 29.8016 12.7005L29.6531 12.5059C29.4155 12.1945 29.1291 11.9235 28.805 11.7035V11.7035C28.2977 11.3592 27.7115 11.1487 27.101 11.0918L26.9877 11.0813C26.17 11.0051 25.3483 11.1776 24.6303 11.5763L23.9156 11.9732C23.4562 12.2283 23.0283 12.5364 22.6406 12.8912L21.1171 14.2857L17.505 17.9821L13.076 22.511C12.6692 22.9269 12.3253 23.4001 12.0553 23.9155L11.7139 24.567C11.3784 25.2073 11.2438 25.9339 11.3278 26.6519V26.6519C11.3621 26.945 11.4324 27.2328 11.537 27.5087L11.741 28.0465C11.949 28.5948 12.2676 29.0946 12.6769 29.5146V29.5146C13.0129 29.8593 13.4047 30.1448 13.8358 30.3591L14.1233 30.502C14.7775 30.8272 15.511 30.9588 16.2374 30.8811V30.8811C16.6955 30.8322 17.141 30.701 17.5526 30.494L17.7698 30.3848C18.2297 30.1535 18.6479 29.8472 19.0073 29.4785L19.0452 29.4396C19.4073 29.0681 19.6998 28.6346 19.9088 28.1599V28.1599C20.1759 27.5533 20.3004 26.8936 20.2729 26.2315L20.2542 25.7823C20.2345 25.308 20.1496 24.8388 20.0019 24.3877V24.3877C19.7334 23.5678 19.264 22.8281 18.6366 22.2359L11.1087 15.1318L9.00387 13.1586C8.69327 12.8674 8.34965 12.6135 7.98003 12.4022L7.64466 12.2105C6.95978 11.819 6.17719 11.6316 5.38926 11.6705V11.6705C4.28447 11.7249 3.24761 12.2199 2.51051 13.0447L2.35566 13.2179C1.73363 13.9139 1.33344 14.7797 1.20634 15.7045L1.20092 15.7439C1.06997 16.6967 1.22704 17.6668 1.65191 18.5296L1.97771 19.1912C2.22447 19.6923 2.59371 20.123 3.05123 20.4433V20.4433C3.45375 20.7252 3.91384 20.9141 4.39827 20.9965L4.89059 21.0802C5.39183 21.1654 5.90408 21.1629 6.40446 21.0727V21.0727C7.13725 20.9407 7.82439 20.6243 8.40121 20.1535L9.02676 19.6429Z" stroke="black" stroke-width="2"/>
</svg>
